<?xml version="1.0" standalone="no"?><!DOCTYPE svg PUBLIC "-//W3C//DTD SVG 1.1//EN" "http://www.w3.org/Graphics/SVG/1.1/DTD/svg11.dtd"><svg t="1722477754453" class="icon" viewBox="0 0 1024 1024" version="1.1" xmlns="http://www.w3.org/2000/svg" p-id="2675" xmlns:xlink="http://www.w3.org/1999/xlink" width="200" height="200"><path d="M292 4h440c20.28 0 36.64 16.44 36.64 36.68v220.2H255.36V40.68C255.36 20.44 271.76 4 292 4" fill="#C7E0FF" p-id="2676"></path><path d="M603.64 4H732c20.28 0 36.64 16.44 36.64 36.68v220.2h-165V4z m-311.6 0h128.28v256.92H255.36V40.68c0-20.24 16.4-36.68 36.68-36.68z m0 0" fill="#3E88FF" p-id="2677"></path><path d="M233.32 260.92h557.32c8.12 0 14.64 6.56 14.64 14.68v7.36c0 8.12-6.56 14.64-14.64 14.64H233.32c-8.08 0-14.64-6.52-14.64-14.6V275.6c0-8.12 6.56-14.68 14.64-14.68" fill="#C17333" p-id="2678"></path><path d="M363.96 267.28H660v109.2H363.96z" fill="#C17333" p-id="2679"></path><path d="M158.4 672.16c0 124.24 67.4 239.04 176.76 301.2a358.832 358.832 0 0 0 353.64 0c109.4-62.16 176.76-177 176.76-301.2 0-192.04-158.28-347.76-353.6-347.76-195.24 0-353.56 155.72-353.56 347.76" fill="#DBDBDB" p-id="2680"></path><path d="M158.4 672.16c0 124.24 67.4 239.04 176.76 301.2a358.832 358.832 0 0 0 353.64 0c109.4-62.16 176.76-177 176.76-301.2 0-192.04-158.28-347.76-353.6-347.76-195.24 0-353.56 155.72-353.56 347.76" fill="#F7C67E" p-id="2681"></path><path d="M208.12 670.4a303.84 303.84 0 0 0 150.88 266.16c94.56 55.08 211.44 55.08 305.96 0a303.808 303.808 0 0 0 150.88-266.16c0-167.84-136.08-303.88-303.92-303.88s-303.88 136.04-303.88 303.88" fill="#C17333" p-id="2682"></path><path d="M512 968.8c-163.8 0-296.6-132.8-296.6-296.6S348.2 375.6 512 375.6s296.6 132.8 296.6 296.6-132.8 296.6-296.6 296.6" fill="#DD8B3B" p-id="2683"></path><path d="M613.44 393.48c-153.92-56.04-324.12 23.36-380.16 177.28s23.32 324.12 177.28 380.16l202.88-557.44z" fill="#E4A262" p-id="2684"></path><path d="M790.72 773.64c56.04-153.92-23.32-324.12-177.28-380.16l-202.88 557.44c153.92 56.04 324.12-23.32 380.16-177.28z" fill="#DD8B3B" p-id="2685"></path><path d="M393.48 809.92l30.48-41.04c19.44 19 43.24 33.56 72.84 33.56 33.12 0 55.64-16.32 55.64-45.48 0-32.24-18.96-52.08-90.04-52.08v-46.8c60.04 0 79.44-20.76 79.44-49.88 0-25.6-15.88-40.6-43.72-41.04-23.4 0.44-42.36 11.48-61.8 29.12l-33.12-39.72c28.24-24.72 59.6-40.16 98-40.16 63.12 0 105.92 30.88 105.92 86.96 0 35.32-19.88 60.92-54.72 74.6v2.2c37.08 10.16 65.32 37.52 65.32 80.36 0 60.04-52.52 94.92-114.76 94.92-51.68-0.04-86.52-19.48-109.48-45.52z" fill="#C17333" p-id="2686"></path><path d="M393.48 801.52l30.44-41.04c19.44 19 43.24 33.56 72.84 33.56 33.12 0 55.64-16.32 55.64-45.48 0-32.24-18.96-52.08-90.04-52.08v-46.8c60.04 0 79.44-20.76 79.44-49.88 0-25.6-15.88-40.6-43.72-41.04-23.4 0.44-42.36 11.48-61.8 29.12l-33.12-39.72c28.24-24.72 59.6-40.16 98-40.16 63.12 0 105.96 30.88 105.96 86.96 0 35.32-19.88 60.92-54.72 74.6v2.2c37.08 10.16 65.32 37.52 65.32 80.36 0 60.04-52.52 94.92-114.76 94.92-51.68-0.04-86.52-19.48-109.48-45.52z" fill="#FFFFFF" p-id="2687"></path></svg>