<?xml version="1.0" standalone="no"?><!DOCTYPE svg PUBLIC "-//W3C//DTD SVG 1.1//EN" "http://www.w3.org/Graphics/SVG/1.1/DTD/svg11.dtd"><svg t="1722477729778" class="icon" viewBox="0 0 1024 1024" version="1.1" xmlns="http://www.w3.org/2000/svg" p-id="2638" xmlns:xlink="http://www.w3.org/1999/xlink" width="200" height="200"><path d="M292 4h440c20.28 0 36.64 16.44 36.64 36.68v220.2H255.36V40.68C255.36 20.44 271.76 4 292 4" fill="#C7E0FF" p-id="2639"></path><path d="M603.64 4H732c20.28 0 36.64 16.44 36.64 36.68v220.2h-165V4z m-311.6 0h128.28v256.92H255.36V40.68c0-20.24 16.4-36.68 36.68-36.68z m0 0" fill="#3E88FF" p-id="2640"></path><path d="M233.32 260.92h557.32c8.12 0 14.64 6.56 14.64 14.68v7.36c0 8.12-6.56 14.64-14.64 14.64H233.32c-8.08 0-14.64-6.52-14.64-14.6V275.6c0-8.12 6.56-14.68 14.64-14.68" fill="#ABAFC6" p-id="2641"></path><path d="M363.96 267.28H660v109.2H363.96z" fill="#ABAFC6" p-id="2642"></path><path d="M158.4 672.16c0 124.24 67.4 239.04 176.76 301.2a358.832 358.832 0 0 0 353.64 0c109.4-62.16 176.76-177 176.76-301.2 0-192.04-158.28-347.76-353.6-347.76-195.24 0-353.56 155.72-353.56 347.76" fill="#DBDBDB" p-id="2643"></path><path d="M158.4 672.16c0 124.24 67.4 239.04 176.76 301.2a358.832 358.832 0 0 0 353.64 0c109.4-62.16 176.76-177 176.76-301.2 0-192.04-158.28-347.76-353.6-347.76-195.24 0-353.56 155.72-353.56 347.76" fill="#D9DBEE" p-id="2644"></path><path d="M208.12 670.4a303.84 303.84 0 0 0 150.88 266.16c94.56 55.08 211.44 55.08 305.96 0a303.808 303.808 0 0 0 150.88-266.16c0-167.84-136.08-303.88-303.92-303.88s-303.88 136.04-303.88 303.88" fill="#ABAFC6" p-id="2645"></path><path d="M512 968.8c-163.8 0-296.6-132.8-296.6-296.6S348.2 375.6 512 375.6s296.6 132.8 296.6 296.6-132.8 296.6-296.6 296.6" fill="#C1C4D8" p-id="2646"></path><path d="M613.44 393.48c-153.92-56.04-324.12 23.36-380.16 177.28s23.32 324.12 177.28 380.16l202.88-557.44z" fill="#D4D6E4" p-id="2647"></path><path d="M790.72 773.64c56.04-153.92-23.32-324.12-177.28-380.16l-202.88 557.44c153.92 56.04 324.12-23.32 380.16-177.28z" fill="#C1C4D8" p-id="2648"></path><path d="M400.96 811.68c88.72-79.44 141.24-140.8 141.24-191.12 0-33.12-18.08-52.96-49-52.96-23.84 0-43.72 15.44-60.04 33.56l-35.32-35.32c30-31.8 59.16-49.44 103.72-49.44 61.8 0 102.84 39.72 102.84 100.64 0 59.16-49 122.72-108.6 181 16.32-1.76 37.96-3.52 52.96-3.52h71.08v54.72h-218.96v-37.56z" fill="#ABAFC6" p-id="2649"></path><path d="M400.96 803.28c88.72-79.44 141.24-140.8 141.24-191.12 0-33.12-18.12-52.96-49-52.96-23.84 0-43.72 15.44-60.04 33.56l-35.32-35.32c30-31.8 59.16-49.44 103.72-49.44 61.8 0 102.84 39.72 102.84 100.64 0 59.16-49 122.72-108.6 181 16.32-1.76 37.96-3.52 52.96-3.52h71.08v54.72h-218.96v-37.56z" fill="#FFFFFF" p-id="2650"></path></svg>